<svg xmlns="http://www.w3.org/2000/svg" width="1100" height="642" viewBox="0 0 1100 642" role="img" aria-labelledby="title desc">
  <title id="title">Most used languages across GitHub repositories</title>
  <desc id="desc">Transparent horizontal bar chart generated from GitHub repository language byte counts.</desc>
  <style>
    :root { --text: #111827; --muted: #4b5563; --axis: #9ca3af; }
    @media (prefers-color-scheme: dark) { :root { --text: #e5e7eb; --muted: #9ca3af; --axis: #6b7280; } }
    text { font-family: 'Segoe UI', 'Helvetica Neue', Arial, sans-serif; }
    .title { fill: var(--text); font-size: 28px; font-weight: 700; }
    .subtitle { fill: var(--muted); font-size: 15px; }
    .label { fill: var(--text); font-size: 16px; font-weight: 600; }
    .value { fill: var(--muted); font-size: 14px; }
  </style>
  <text x="20" y="42" class="title">Most Used Languages - hari7261</text>
  <text x="20" y="70" class="subtitle">Aggregated by GitHub language bytes across 231 repositories | Total: 33.92 MB</text>
  <text x="20" y="92" class="subtitle">Generated: 2026-03-01 14:08:37 UTC | Background: transparent</text>
  <text x="20" y="146" class="label">TypeScript</text>
  <rect x="260" y="130" width="500" height="22" rx="11" fill="none" stroke="var(--axis)" stroke-opacity="0.45" />
  <rect x="260" y="130" width="254" height="22" rx="11" fill="#3178c6" />
  <text x="790" y="146" class="value">50.81% (17.24 MB)</text>
  <text x="20" y="182" class="label">HTML</text>
  <rect x="260" y="166" width="500" height="22" rx="11" fill="none" stroke="var(--axis)" stroke-opacity="0.45" />
  <rect x="260" y="166" width="60" height="22" rx="11" fill="#e34c26" />
  <text x="790" y="182" class="value">11.99% (4.07 MB)</text>
  <text x="20" y="218" class="label">Python</text>
  <rect x="260" y="202" width="500" height="22" rx="11" fill="none" stroke="var(--axis)" stroke-opacity="0.45" />
  <rect x="260" y="202" width="49" height="22" rx="11" fill="#3572A5" />
  <text x="790" y="218" class="value">9.85% (3.34 MB)</text>
  <text x="20" y="254" class="label">JavaScript</text>
  <rect x="260" y="238" width="500" height="22" rx="11" fill="none" stroke="var(--axis)" stroke-opacity="0.45" />
  <rect x="260" y="238" width="41" height="22" rx="11" fill="#f1e05a" />
  <text x="790" y="254" class="value">8.13% (2.76 MB)</text>
  <text x="20" y="290" class="label">Jupyter Notebook</text>
  <rect x="260" y="274" width="500" height="22" rx="11" fill="none" stroke="var(--axis)" stroke-opacity="0.45" />
  <rect x="260" y="274" width="37" height="22" rx="11" fill="#DA5B0B" />
  <text x="790" y="290" class="value">7.34% (2.49 MB)</text>
  <text x="20" y="326" class="label">CSS</text>
  <rect x="260" y="310" width="500" height="22" rx="11" fill="none" stroke="var(--axis)" stroke-opacity="0.45" />
  <rect x="260" y="310" width="27" height="22" rx="11" fill="#563d7c" />
  <text x="790" y="326" class="value">5.33% (1.81 MB)</text>
  <text x="20" y="362" class="label">MDX</text>
  <rect x="260" y="346" width="500" height="22" rx="11" fill="none" stroke="var(--axis)" stroke-opacity="0.45" />
  <rect x="260" y="346" width="11" height="22" rx="11" fill="hsl(178, 70%, 52%)" />
  <text x="790" y="362" class="value">2.22% (769.62 KB)</text>
  <text x="20" y="398" class="label">Go</text>
  <rect x="260" y="382" width="500" height="22" rx="11" fill="none" stroke="var(--axis)" stroke-opacity="0.45" />
  <rect x="260" y="382" width="6" height="22" rx="11" fill="#00ADD8" />
  <text x="790" y="398" class="value">1.27% (440.60 KB)</text>
  <text x="20" y="434" class="label">Java</text>
  <rect x="260" y="418" width="500" height="22" rx="11" fill="none" stroke="var(--axis)" stroke-opacity="0.45" />
  <rect x="260" y="418" width="6" height="22" rx="11" fill="#b07219" />
  <text x="790" y="434" class="value">1.25% (434.50 KB)</text>
  <text x="20" y="470" class="label">Dart</text>
  <rect x="260" y="454" width="500" height="22" rx="11" fill="none" stroke="var(--axis)" stroke-opacity="0.45" />
  <rect x="260" y="454" width="3" height="22" rx="11" fill="#00B4AB" />
  <text x="790" y="470" class="value">0.68% (236.84 KB)</text>
  <text x="20" y="506" class="label">ShaderLab</text>
  <rect x="260" y="490" width="500" height="22" rx="11" fill="none" stroke="var(--axis)" stroke-opacity="0.45" />
  <rect x="260" y="490" width="2" height="22" rx="11" fill="hsl(121, 70%, 52%)" />
  <text x="790" y="506" class="value">0.27% (94.60 KB)</text>
  <text x="20" y="542" class="label">PLpgSQL</text>
  <rect x="260" y="526" width="500" height="22" rx="11" fill="none" stroke="var(--axis)" stroke-opacity="0.45" />
  <rect x="260" y="526" width="2" height="22" rx="11" fill="hsl(302, 70%, 52%)" />
  <text x="790" y="542" class="value">0.19% (65.82 KB)</text>
</svg>
